<svg width="18" height="18" viewBox="0 0 18 18" fill="none" xmlns="http://www.w3.org/2000/svg">
<rect width="18" height="18" rx="9" fill="#FF24BD"/>
<path d="M16.3125 9C16.3125 13.0386 13.0386 16.3125 9 16.3125C4.96142 16.3125 1.6875 13.0386 1.6875 9C1.6875 4.96142 4.96142 1.6875 9 1.6875C13.0386 1.6875 16.3125 4.96142 16.3125 9ZM3.10244 9C3.10244 12.2571 5.74287 14.8976 9 14.8976C12.2571 14.8976 14.8976 12.2571 14.8976 9C14.8976 5.74287 12.2571 3.10244 9 3.10244C5.74287 3.10244 3.10244 5.74287 3.10244 9Z" fill="white"/>
<path fill-rule="evenodd" clip-rule="evenodd" d="M5 6V12H6.31687V10.0851V10.0851C7.34597 10.0851 8.50067 9.85711 8.95633 8.93438C9.16993 8.50185 9.21929 8.04538 9.10002 7.59279C8.76363 6.3163 7.18401 6 5.86394 6H5ZM6.18519 8.93617V7.2766H7.50206C8.16049 7.65957 8.16049 8.55319 7.50206 8.93617H6.18519Z" fill="white"/>
<path d="M8.81893 10.7234V12H10.0041V10.0851V10.0851C11.1201 10.0851 12.3901 9.84061 12.8281 8.81416C13.0525 8.28844 13.0572 7.73195 12.8423 7.22096C12.4138 6.20206 11.1325 6 10.0271 6H9.34568C9.81324 6.37777 9.93147 6.63808 10.0041 7.14894H11.1893C12.1111 7.40426 12.2428 8.68085 11.1893 8.93617H10.0041C9.88616 9.65823 9.67696 10.053 8.81893 10.7234Z" fill="white"/>
</svg>
