<svg width="13" height="13" viewBox="0 0 13 13" fill="none" xmlns="http://www.w3.org/2000/svg">
<path d="M4.14118 8.65444C4.14118 8.09041 4.03247 7.56038 3.81501 7.06432C3.60436 6.56827 3.31555 6.13676 2.9486 5.76981C2.58165 5.40286 2.15014 5.11404 1.65408 4.9034C1.15802 4.68594 0.627981 4.57722 0.0639648 4.57722C0.627981 4.57722 1.15802 4.47188 1.65408 4.26124C2.15014 4.04377 2.58165 3.75158 2.9486 3.38463C3.31555 3.01768 3.60436 2.58618 3.81501 2.09012C4.03247 1.59405 4.14118 1.06402 4.14118 0.5C4.14118 1.06402 4.24652 1.59405 4.45717 2.09012C4.67463 2.58618 4.96682 3.01768 5.33377 3.38463C5.70072 3.75158 6.13224 4.04377 6.62829 4.26124C7.12434 4.47188 7.65438 4.57722 8.2184 4.57722C7.65438 4.57722 7.12434 4.68594 6.62829 4.9034C6.13224 5.11404 5.70072 5.40286 5.33377 5.76981C4.96682 6.13676 4.67463 6.56827 4.45717 7.06432C4.24652 7.56038 4.14118 8.09041 4.14118 8.65444Z" fill="white"/>
<path d="M5.25337 0.5H8.63561C13.2688 1.28764 13.3151 7.63514 8.63561 8.51544H8.17229V12.5H5.25337V8.51544C5.34603 6.52317 6.73599 5.73552 8.03329 5.73552C9.65491 5.73552 9.74758 3.37259 8.03329 3.32626C6.54471 3.28602 5.49576 2.43273 5.25337 0.5Z" fill="white"/>
</svg>
