<svg width="13" height="13" viewBox="0 0 13 13" fill="none" xmlns="http://www.w3.org/2000/svg">
<path d="M4.07722 8.65444C4.07722 8.09041 3.9685 7.56038 3.75104 7.06432C3.5404 6.56827 3.25158 6.13676 2.88463 5.76981C2.51768 5.40286 2.08618 5.11404 1.59012 4.9034C1.09405 4.68594 0.564016 4.57722 0 4.57722C0.564016 4.57722 1.09405 4.47188 1.59012 4.26124C2.08618 4.04377 2.51768 3.75158 2.88463 3.38463C3.25158 3.01768 3.5404 2.58618 3.75104 2.09012C3.9685 1.59405 4.07722 1.06402 4.07722 0.5C4.07722 1.06402 4.18256 1.59405 4.3932 2.09012C4.61067 2.58618 4.90286 3.01768 5.26981 3.38463C5.63676 3.75158 6.06827 4.04377 6.56432 4.26124C7.06038 4.47188 7.59041 4.57722 8.15444 4.57722C7.59041 4.57722 7.06038 4.68594 6.56432 4.9034C6.06827 5.11404 5.63676 5.40286 5.26981 5.76981C4.90286 6.13676 4.61067 6.56827 4.3932 7.06432C4.18256 7.56038 4.07722 8.09041 4.07722 8.65444Z" fill="#FC77FF"/>
<path d="M5.1894 0.5H8.57164C13.2048 1.28764 13.2512 7.63514 8.57164 8.51544H8.10832V12.5H5.1894V8.51544C5.28207 6.52317 6.67203 5.73552 7.96933 5.73552C9.59095 5.73552 9.68361 3.37259 7.96933 3.32626C6.48074 3.28602 5.4318 2.43273 5.1894 0.5Z" fill="#FC77FF"/>
</svg>
