<svg width="1728" height="429" viewBox="0 0 1728 429" fill="none" xmlns="http://www.w3.org/2000/svg">
<mask id="mask0_5438_895" style="mask-type:alpha" maskUnits="userSpaceOnUse" x="-356" y="0" width="2599" height="431">
<path d="M-13.1758 52.7896C45.2272 69.3044 93.6364 121.614 149.122 160.491C202.488 197.906 247.3 181.786 300.786 156.185C394.367 111.421 487.947 58.8741 584.167 51.9204C675.107 45.3223 765.532 36.8281 856.354 23.5135C944.817 10.5545 1041.48 -21.1317 1127.7 34.3783C1209.61 87.1231 1276.57 169.42 1364.59 161.36C1452.74 153.3 1539.32 110.749 1626.31 81.8682C1722.69 49.8659 1814.03 40.4235 1909.21 93.7604C2021.14 156.461 2125.15 255.55 2241.88 269.733" stroke="white" stroke-width="3.8531" stroke-miterlimit="10"/>
<path d="M-26.3271 67.249C31.3565 83.1315 81.6845 132.597 138.729 169.893C192.655 205.135 237.986 189.529 291.872 164.638C365.106 130.819 438.059 92.8902 509.534 73.4124C532.001 67.249 554.507 62.3498 577.132 59.821C666.994 49.786 755.939 35.7603 846.202 22.8012C934.427 10.1583 1029.12 -10.3863 1115.07 44.6498C1193.54 94.7867 1262.66 163.532 1343.01 167.76C1347.04 167.957 1351.12 167.997 1355.28 167.76C1441.95 162.9 1532.73 120.863 1620.07 92.5346C1705.22 64.8389 1786.81 48.3634 1870.71 81.1957C1881.71 85.5019 1892.74 90.5198 1903.85 96.3669C2018.46 156.697 2122.75 255.825 2241.92 269.812" stroke="white" stroke-width="3.8531" stroke-miterlimit="10"/>
<path d="M-39.4785 81.6721C17.4457 96.9227 69.6124 143.583 128.296 179.22C182.781 212.289 228.632 197.197 282.958 172.978C357.99 139.513 432.543 102.454 502.859 82.8573C525.285 76.6149 547.629 71.0048 570.096 67.6067C658.841 54.1344 746.306 34.5776 836.007 21.9345C924.034 9.60772 1016.69 0.24411 1102.4 54.727C1181.39 104.785 1255.14 165.431 1333.85 173.412C1337.77 173.807 1341.81 174.044 1345.96 173.965C1431.11 172.266 1526.13 130.742 1613.84 103.046C1698.74 76.0223 1780.61 53.6601 1864.8 84.4379C1875.99 88.5468 1887.22 93.2877 1898.46 98.8585C2015.74 156.779 2120.32 255.946 2241.92 269.774" stroke="white" stroke-width="3.8531" stroke-miterlimit="10"/>
<path d="M-52.6309 96.0926C3.57394 110.711 57.5397 154.605 117.902 188.583C172.867 219.558 219.318 204.94 274.043 181.353C350.914 148.244 426.986 111.975 496.183 92.3393C518.568 85.9782 540.794 79.6965 563.1 75.3899C650.723 58.5195 736.709 33.3918 825.854 21.1045C913.639 9.05432 1004.3 10.9112 1089.77 64.8806C1169.24 114.86 1247.63 167.288 1324.74 179.14C1328.58 179.733 1332.58 180.168 1336.65 180.207C1420.28 181.669 1519.54 140.698 1607.6 113.595C1692.31 87.2424 1774.45 58.9541 1858.88 87.7168C1870.28 91.5887 1881.67 96.0926 1893.06 101.347C2013.06 156.858 2117.88 256.104 2241.92 269.695" stroke="white" stroke-width="3.8531" stroke-miterlimit="10"/>
<path d="M-65.7832 110.553C-10.3382 124.54 45.4266 165.629 107.507 197.987C162.913 226.868 210.043 212.684 265.168 189.769C343.918 157.056 421.509 121.537 489.506 101.901C511.892 95.4215 533.919 88.4682 556.063 83.2526C642.569 62.9845 727.075 32.3257 815.661 20.3545C903.204 8.62031 991.91 21.6583 1077.06 75.1141C1157 125.014 1240.03 169.185 1315.51 184.949C1319.26 185.739 1323.18 186.371 1327.26 186.569C1409.29 191.112 1512.86 150.734 1601.32 124.263C1685.83 98.5822 1768.26 64.3674 1852.92 91.0755C1864.52 94.7499 1876.07 98.9378 1887.66 103.955C2010.38 157.056 2115.4 256.381 2241.92 269.775" stroke="white" stroke-width="3.8531" stroke-miterlimit="10"/>
<path d="M-78.8926 124.973C-24.167 138.327 33.2766 176.691 97.1564 207.349C152.961 234.176 200.771 220.467 256.296 198.184C336.885 165.865 415.995 131.137 482.873 111.422C505.218 104.863 527.085 97.1985 549.11 91.1141C634.456 67.4877 717.525 31.2186 805.587 19.5634C892.933 8.10586 979.597 32.3249 1064.5 85.3063C1144.93 135.127 1232.56 171.08 1306.47 190.677C1310.15 191.665 1313.99 192.455 1318.02 192.85C1398.45 200.475 1506.42 160.926 1595.17 134.811C1683.91 108.696 1762.19 69.6215 1847.09 94.3538C1858.88 97.7911 1870.63 101.742 1882.35 106.483C2007.83 157.134 2113.04 256.538 2242 269.774" stroke="white" stroke-width="3.8531" stroke-miterlimit="10"/>
<path d="M-92.0498 139.395C-38.0837 152.117 21.0788 187.754 86.7175 216.714C142.882 241.486 191.451 228.211 247.376 206.56C329.844 174.637 410.433 140.62 476.191 120.945C498.497 114.267 520.243 105.931 542.07 98.9379C626.295 71.9928 707.926 30.0739 795.388 18.7743C882.495 7.63277 967.159 43.0329 1051.83 95.4613C1132.78 145.243 1225 172.899 1297.31 196.407C1300.91 197.592 1304.67 198.579 1308.71 199.133C1387.49 209.761 1499.82 170.923 1588.93 145.401C1673.07 121.26 1756.06 74.8772 1841.13 97.6737C1853.12 100.874 1865.04 104.588 1876.95 109.052C2005.23 157.214 2110.6 256.776 2241.95 269.775" stroke="white" stroke-width="3.8531" stroke-miterlimit="10"/>
<path d="M-105.199 153.852C-51.9929 165.982 8.84872 198.853 76.3262 226.115C132.85 248.911 182.179 236.031 238.463 214.973C322.77 183.445 404.878 150.178 469.517 130.463C491.783 123.667 513.37 114.659 535.076 106.758C618.145 76.494 698.331 28.925 785.238 17.9415C872.102 7.1161 954.809 53.6971 1039.16 105.612C1120.59 155.314 1217.44 174.713 1288.16 202.132C1291.68 203.476 1295.4 204.701 1299.35 205.412C1376.5 218.963 1493.19 180.956 1582.65 155.986C1666.6 132.557 1749.95 80.1286 1835.17 100.95C1847.37 103.913 1859.48 107.35 1871.51 111.578C2002.55 157.25 2108.12 256.931 2241.92 269.772" stroke="white" stroke-width="3.8531" stroke-miterlimit="10"/>
<path d="M-118.351 168.274C-65.8636 179.771 -3.42337 209.995 65.9328 235.439C122.737 256.3 172.905 243.775 229.549 223.349C315.735 192.256 399.322 159.7 462.802 139.946C485.028 133.032 506.454 123.392 528.001 114.581C609.91 81.0382 688.66 27.7801 775.004 17.1522C861.672 6.60326 942.221 64.5628 1026.45 115.806C1108.27 165.587 1209.81 176.571 1278.93 207.902C1282.32 209.442 1286 210.825 1289.96 211.694C1365.43 228.17 1486.51 190.952 1576.34 166.535C1660.08 143.778 1743.75 85.3052 1829.18 104.23C1841.57 106.995 1853.84 110.156 1866.07 114.068C1999.95 157.251 2105.65 257.09 2241.88 269.733" stroke="white" stroke-width="3.8531" stroke-miterlimit="10"/>
<path d="M-131.501 182.695C-79.7739 193.56 -15.7342 221.177 55.5409 244.803C112.625 263.767 163.633 251.559 220.676 231.725C308.741 201.106 393.807 169.183 456.168 149.468C478.354 142.435 499.62 132.163 521.047 122.404C601.835 85.6211 679.109 26.6738 764.933 16.3225C851.358 6.08964 929.949 75.2304 1013.9 125.96C1096.2 175.662 1202.38 178.349 1269.89 213.63C1273.21 215.369 1276.81 216.949 1280.73 217.976C1354.52 237.296 1480.04 200.948 1570.18 177.124C1653.73 155.078 1737.76 90.481 1823.34 107.549C1835.94 110.077 1848.41 112.962 1860.76 116.636C1997.44 157.251 2103.29 257.327 2241.96 269.733" stroke="white" stroke-width="3.8531" stroke-miterlimit="10"/>
<path d="M-144.654 197.155C-93.6466 207.387 -28.088 232.397 45.1059 254.206C102.43 271.274 154.317 259.381 211.721 240.14C301.704 209.955 388.209 178.704 449.45 158.989C471.596 151.877 492.743 140.933 513.97 130.226C593.6 90.2038 669.472 25.5276 754.698 15.5319C840.923 5.61513 917.476 85.9368 1001.14 136.153C1083.93 185.816 1194.7 180.166 1260.66 219.359C1263.9 221.295 1267.42 223.073 1271.33 224.258C1343.49 246.343 1473.36 210.943 1563.87 187.712C1647.22 166.338 1731.64 95.6166 1817.35 110.827C1830.14 113.08 1842.77 115.766 1855.32 119.164C1994.83 157.211 2100.81 257.485 2241.92 269.733" stroke="white" stroke-width="3.8531" stroke-miterlimit="10"/>
<path d="M-157.808 211.578C-107.559 221.179 -40.4418 243.659 34.711 263.572C92.2744 278.822 145.081 267.207 202.845 248.519C294.707 218.808 382.691 188.228 442.813 168.513C464.919 161.283 485.906 149.707 507.013 138.052C585.522 94.8291 659.918 24.3844 744.582 14.7442C830.567 5.10403 905.121 96.6462 988.548 146.309C1071.81 195.893 1187.22 181.946 1251.58 225.09C1254.74 227.184 1258.18 229.159 1262.06 230.542C1332.53 255.354 1466.81 220.902 1557.67 198.303C1640.82 177.6 1725.6 100.755 1811.47 114.149C1824.46 116.164 1837.29 118.574 1849.96 121.735C1992.27 157.213 2098.37 257.724 2241.95 269.775" stroke="white" stroke-width="3.8531" stroke-miterlimit="10"/>
<path d="M-170.957 225.998C-121.429 234.967 -52.7921 254.958 24.3193 272.935C82.1227 286.407 135.809 275.029 193.932 256.934C287.713 227.737 377.136 197.749 436.099 178.034C458.165 170.686 478.992 158.477 499.939 145.914C577.331 99.4907 650.244 23.2777 734.349 13.9536C820.096 4.62946 892.65 107.353 975.838 156.502C1059.59 206.007 1179.63 183.763 1242.35 230.858C1245.43 233.149 1248.78 235.283 1252.66 236.824C1321.46 264.322 1460.13 230.897 1551.35 208.851C1634.3 188.82 1719.45 105.812 1805.47 117.428C1818.67 119.206 1831.7 121.339 1844.49 124.263C1989.68 157.134 2095.85 257.882 2241.88 269.735" stroke="white" stroke-width="3.8531" stroke-miterlimit="10"/>
<path d="M-184.066 240.457C-135.297 248.794 -65.1416 266.375 13.9687 282.337C71.9718 294.031 126.617 282.89 185.1 265.348C280.76 236.664 371.662 207.23 429.506 187.555C451.532 180.048 472.239 167.247 493.026 153.735C569.338 104.151 640.733 22.1306 724.318 13.162C809.865 4.15399 880.423 118.058 963.287 166.694C1046.16 215.329 1172.19 185.54 1233.32 236.625C1236.28 239.114 1239.59 241.445 1243.43 243.144C1310.59 273.289 1453.62 240.931 1545.2 219.478C1627.95 200.119 1713.49 110.947 1799.64 120.745C1813.07 122.286 1826.22 124.143 1839.22 126.829C1987.24 157.054 2093.53 258.118 2241.96 269.773" stroke="white" stroke-width="3.8531" stroke-miterlimit="10"/>
<path d="M-197.223 254.878C-149.173 262.582 -77.538 277.754 3.53084 291.661C61.7739 301.657 117.299 290.673 176.142 273.684C273.72 245.514 366.062 216.673 422.786 197.037C444.772 189.412 465.319 176.018 485.946 161.518C561.14 108.774 631.054 20.9848 714.081 12.2928C799.388 3.56131 867.943 128.647 950.573 176.808C1035.32 226.194 1164.64 187.239 1224.12 242.314C1227 245.001 1230.28 247.49 1234.07 249.386C1299.63 282.1 1446.98 250.848 1538.92 230.027C1621.43 211.339 1707.41 115.964 1793.68 124.024C1807.31 125.289 1820.66 126.948 1833.77 129.319C1984.64 156.896 2091.05 258.236 2241.92 269.733" stroke="white" stroke-width="3.8531" stroke-miterlimit="10"/>
<path d="M-210.373 269.339C-163.083 276.411 -89.9294 289.252 -6.86189 301.065C51.5812 309.362 108.066 298.576 167.268 282.101C266.765 254.444 360.546 226.195 416.151 206.559C438.097 198.815 458.524 184.79 478.991 169.382C553.145 113.516 621.541 19.8794 703.97 11.543C789.035 3.12754 855.594 139.394 937.981 187.003C1020.37 234.611 1157.16 189.017 1215.05 248.044C1217.84 250.888 1221.04 253.575 1224.8 255.669C1288.76 290.911 1440.43 260.845 1532.73 240.616C1615.03 222.56 1701.38 120.983 1787.76 127.344C1801.6 128.371 1815.11 129.754 1828.42 131.887C1982.12 156.778 2088.66 258.474 2241.96 269.734" stroke="white" stroke-width="3.8531" stroke-miterlimit="10"/>
<path d="M-223.523 283.76C-176.993 290.2 -102.28 300.788 -17.2538 310.428C41.3892 317.105 98.8328 306.438 158.355 290.516C259.771 263.413 354.991 235.678 409.437 216.121C431.303 208.258 451.65 193.64 471.917 177.244C544.992 118.217 611.87 18.7732 693.737 10.7529C778.602 2.65352 843.161 150.101 925.232 197.196C1010.97 246.424 1149.57 190.795 1205.77 253.812C1208.49 256.854 1211.61 259.699 1215.37 261.951C1277.81 299.721 1433.71 270.801 1526.41 251.165C1608.52 233.781 1695.26 125.961 1781.77 130.583C1795.8 131.334 1809.51 132.48 1822.94 134.376C1979.48 156.581 2086.14 258.632 2241.88 269.695" stroke="white" stroke-width="3.8531" stroke-miterlimit="10"/>
<path d="M-236.675 298.181C-190.864 303.989 -114.672 312.325 -27.6868 319.792C31.1959 324.849 89.5191 314.261 149.441 298.892C252.776 272.342 349.395 245.12 402.761 225.603C424.587 217.622 444.815 202.372 464.922 185.027C536.958 122.919 602.276 17.588 683.623 9.92326C768.252 2.10046 830.811 160.729 912.639 207.35C998.864 256.499 1142.13 192.534 1196.7 259.541C1199.34 262.781 1202.42 265.784 1206.1 268.233C1266.97 308.453 1427.16 280.758 1520.22 261.754C1602.12 245.041 1689.23 130.939 1775.89 133.902C1790.16 134.377 1804.03 135.285 1817.63 136.945C1977.05 156.423 2083.78 258.83 2241.96 269.734" stroke="white" stroke-width="3.8531" stroke-miterlimit="10"/>
<path d="M-249.825 312.642C-204.776 317.817 -127.065 323.981 -38.0807 329.196C21.0416 332.633 80.2842 322.203 140.526 307.308C245.78 281.351 343.838 254.643 396.085 235.125C417.871 226.986 437.978 211.183 457.886 192.89C528.921 127.661 592.682 16.4825 673.47 9.13386C757.857 1.62717 818.459 171.437 900.006 217.544C986.75 266.614 1134.66 194.312 1187.59 265.31C1190.14 268.708 1193.14 271.908 1196.82 274.555C1256.22 317.225 1420.56 290.754 1514.02 272.382C1595.69 256.302 1683.23 139.079 1770.02 137.262C1784.49 136.945 1798.52 138.131 1812.27 139.553C1974.53 156.265 2081.34 259.107 2242 269.775" stroke="white" stroke-width="3.8531" stroke-miterlimit="10"/>
<path d="M-262.981 327.063C-218.648 331.607 -139.018 329.71 -48.4754 338.56C10.6072 344.328 71.0493 330.066 131.651 315.684C238.823 290.28 338.28 264.086 389.448 244.647C411.194 236.39 431.182 219.994 450.929 200.713C520.925 132.363 583.086 15.3767 663.273 8.3441C747.464 1.15348 806.146 181.947 887.293 227.737C974.6 276.531 1127.14 196.051 1178.35 271.079C1180.83 274.674 1183.75 278.032 1187.38 280.877C1245.35 325.996 1413.84 300.75 1507.66 283.01C1589.13 267.563 1677.12 143.82 1763.98 140.581C1778.65 140.028 1792.88 140.936 1806.79 142.121C1971.89 156.068 2078.82 259.305 2241.88 269.814" stroke="white" stroke-width="3.8531" stroke-miterlimit="10"/>
<path d="M-276.133 341.483C-232.561 345.394 -151.572 341.996 -58.8707 347.883C0.611941 351.676 61.773 337.888 122.735 324.06C231.826 299.287 332.722 273.488 382.73 254.128C404.437 245.713 424.304 228.764 443.892 208.496C512.888 137.103 573.491 14.23 653.12 7.55294C737.067 0.638894 793.75 192.653 874.658 237.89C962.485 286.605 1119.66 197.789 1169.23 276.767C1171.59 280.56 1174.51 284.076 1178.11 287.119C1234.67 334.648 1407.28 310.666 1501.46 293.519C1582.73 278.742 1671 145.795 1758.1 143.82C1772.97 143.503 1787.36 143.662 1801.43 144.57C1969.37 155.712 2076.42 259.423 2241.92 269.735" stroke="white" stroke-width="3.8531" stroke-miterlimit="10"/>
<path d="M-289.286 355.943C-246.432 359.222 -164.044 354.481 -69.3041 357.286C-9.462 359.064 52.4989 345.828 113.78 332.475C224.79 308.295 327.086 282.97 376.015 263.689C397.681 255.155 417.469 237.613 436.816 216.397C504.853 141.844 563.817 13.1232 642.925 6.76232C726.634 0.164306 781.317 203.359 861.986 248.083C950.291 296.719 1112.19 199.566 1160.08 282.535C1162.36 286.526 1165.24 290.2 1168.75 293.4C1223.96 343.34 1400.65 320.622 1495.19 304.107C1576.22 289.963 1664.88 150.694 1752.14 147.138C1767.21 146.505 1781.81 146.466 1796 147.138C1966.77 155.474 2073.94 259.659 2241.88 269.734" stroke="white" stroke-width="3.8531" stroke-miterlimit="10"/>
<path d="M-302.397 370.363C-260.302 373.01 -176.355 370.956 -79.6566 366.649C-19.5344 363.963 43.3058 353.69 104.947 340.85C217.876 317.302 321.61 292.412 369.42 273.171C391.006 264.479 410.714 246.384 429.902 224.18C496.94 146.544 554.263 11.9768 632.812 5.93194C716.32 -0.350006 769.007 213.986 849.356 258.236C938.139 306.832 1104.76 201.304 1150.97 288.263C1153.17 292.412 1155.96 296.284 1159.48 299.681C1213.37 352.031 1394.09 330.577 1488.99 314.694C1569.82 301.182 1658.85 155.592 1746.27 150.416C1761.54 149.508 1776.33 149.191 1790.68 149.666C1964.29 155.197 2071.59 259.817 2241.96 269.733" stroke="white" stroke-width="3.8531" stroke-miterlimit="10"/>
<path d="M-315.548 384.786C-274.212 386.801 -188.627 382.809 -90.049 376.013C-29.6073 371.825 34.0725 361.593 96.0334 349.266C210.881 326.351 316.014 301.855 362.745 282.693C384.291 273.843 403.919 255.195 422.867 232.003C488.985 151.286 544.668 10.8319 622.659 5.14263C705.928 -0.862738 756.616 224.694 836.726 268.43C926.029 316.948 1097.32 203.083 1141.81 294.032C1143.93 298.378 1146.69 302.408 1150.13 306.004C1202.69 360.763 1387.42 340.376 1482.72 325.284C1563.3 312.246 1652.73 160.492 1740.31 153.736C1755.78 152.551 1770.74 151.997 1785.25 152.234C1961.65 154.921 2069.11 260.055 2241.92 269.774" stroke="white" stroke-width="3.8531" stroke-miterlimit="10"/>
<path d="M-328.698 399.247C-288.083 400.63 -200.898 394.742 -100.441 385.418C-39.6799 379.767 24.7995 369.535 87.16 357.682C203.926 335.438 310.459 311.298 356.07 292.255C377.577 283.287 397.084 264.006 415.872 239.906C481.031 156.028 535.078 9.68674 612.468 4.35305C695.537 -1.33625 744.186 235.402 824.053 278.624C913.838 327.062 1090.01 204.822 1132.66 299.801C1134.7 304.345 1137.42 308.533 1140.81 312.325C1192.14 369.495 1380.82 350.412 1476.48 335.913C1556.87 323.546 1646.61 165.392 1734.4 157.095C1750.07 155.593 1765.22 154.922 1779.89 154.843C1959.14 153.697 2066.71 260.292 2241.96 269.814" stroke="white" stroke-width="3.8531" stroke-miterlimit="10"/>
<path d="M-341.849 413.665C-301.996 414.416 -213.131 406.633 -110.876 394.742C-49.7944 387.629 15.5246 377.515 78.2049 366.018C196.93 344.604 304.822 320.622 349.354 301.697C370.78 292.531 390.288 272.777 408.796 247.649C473.235 160.848 525.482 8.58027 602.315 3.56261C685.141 -1.81061 731.833 246.108 811.381 288.778C901.643 337.137 1082.49 206.599 1123.5 305.53C1125.46 310.231 1128.14 314.617 1131.46 318.568C1181.55 378.187 1374.19 360.329 1470.21 346.461C1550.39 334.766 1640.46 170.212 1728.4 160.334C1744.27 158.556 1759.58 157.529 1774.41 157.292C1956.46 153.973 2064.19 260.41 2241.88 269.735" stroke="white" stroke-width="3.8531" stroke-miterlimit="10"/>
<path d="M-355 428.087C-248.589 428.441 238.144 356.693 342.718 311.218C437.938 269.853 493.782 8.81677 592.162 2.73238C674.749 -2.36427 719.441 256.736 798.75 298.931C889.494 347.211 1075.02 208.377 1114.39 311.218C1144.21 389.132 1361.16 371.193 1464.01 357.009C1544 345.986 1634.38 174.992 1722.53 163.613C1936.91 135.917 2047.2 259.857 2241.92 269.734" stroke="white" stroke-width="3.8531" stroke-miterlimit="10"/>
</mask>
<g mask="url(#mask0_5438_895)">
<path d="M2242 -58.9917H-13.4482V395.674H2242V-58.9917Z" fill="#EF6BF2"/>
</g>
</svg>
