<svg width="76" height="77" viewBox="0 0 76 77" fill="none" xmlns="http://www.w3.org/2000/svg">
<rect y="0.361816" width="76" height="76" rx="38" fill="#131313"/>
<path d="M30.1814 46.9796C30.1814 44.7235 29.7466 42.6033 28.8767 40.6191C28.0341 38.6349 26.8789 36.9088 25.4111 35.441C23.9433 33.9732 22.2173 32.818 20.233 31.9754C18.2488 31.1056 16.1286 30.6707 13.8726 30.6707C16.1286 30.6707 18.2488 30.2493 20.233 29.4068C22.2173 28.5369 23.9433 27.3681 25.4111 25.9003C26.8789 24.4325 28.0341 22.7065 28.8767 20.7223C29.7466 18.738 30.1814 16.6179 30.1814 14.3618C30.1814 16.6179 30.6028 18.738 31.4454 20.7223C32.3152 22.7065 33.484 24.4325 34.9518 25.9003C36.4196 27.3681 38.1456 28.5369 40.1299 29.4068C42.1141 30.2493 44.2342 30.6707 46.4903 30.6707C44.2342 30.6707 42.1141 31.1056 40.1299 31.9754C38.1456 32.818 36.4196 33.9732 34.9518 35.441C33.484 36.9088 32.3152 38.6349 31.4454 40.6191C30.6028 42.6033 30.1814 44.7235 30.1814 46.9796Z" fill="white"/>
<path d="M34.6293 14.3618H48.1583C66.6911 17.5124 66.8764 42.9024 48.1583 46.4236H46.305V62.3618H34.6293V46.4236C35 38.4545 40.5598 35.3039 45.749 35.3039C52.2355 35.3039 52.6062 25.8522 45.749 25.6668C39.7947 25.5059 35.5989 22.0927 34.6293 14.3618Z" fill="white"/>
</svg>
